# xmcd CD database file
#
# Track frame offsets:
#	150
#	19885
#	38842
#	58223
#	77767
#	98275
#	115384
#	135475
#	151345
#	167711
#	184723
#	202368
#	221055
#	238613
#	258570
#
# Disc length: 3707 seconds
#
# Revision: 0
# Processed by: cddbd v1.5.2PL0 Copyright (c) Steve Scherf et al.
# Submitted via: CDex 1.70beta2
#
DISCID=d20e790f
DTITLE=Ilegales - La Historia
DYEAR=2003
DGENRE=Merengue
TTITLE0=Fiesta Caliente
TTITLE1=A que te pongo
TTITLE2=El Taqui Taqui
TTITLE3=La Morena
TTITLE4=Dame de eso
TTITLE5=Como un trueno
TTITLE6=Sueño Contigo
TTITLE7=Tu recuerdo
TTITLE8=Siento
TTITLE9=Me he quedado solo
TTITLE10=La ladrona
TTITLE11=Enamorao
TTITLE12=La Cosita
TTITLE13=Dame un Chino
TTITLE14=Tu no sabes
EXTD=YEAR: 2003
EXTT0=
EXTT1=
EXTT2=
EXTT3=
EXTT4=
EXTT5=
EXTT6=
EXTT7=
EXTT8=
EXTT9=
EXTT10=
EXTT11=
EXTT12=
EXTT13=
EXTT14=
PLAYORDER=
